# xmcd
#
# Track frame offsets:
# 150
# 14317
# 29203
# 44632
# 54807
# 66500
# 79374
# 90113
# 105268
# 120533
#
# Disc length: 1769 seconds
#
#
# Revision: 4
# Processed by: cddbd v1.5.1PL2 Copyright (c) Steve Scherf et al.
# Submitted via: FreeRIP 2.943 
#
DISCID=7b06e70a
DTITLE=Ricky Van Shelton - Wild-Eyed Dream
DYEAR=1987
DGENRE=Country
TTITLE0=Ultimately Fine
TTITLE1=Crime Of Passion
TTITLE2=Life Turned Her That Way
TTITLE3=I Don't Care
TTITLE4=Don't We All Have That Right
TTITLE5=Wild-Eyed Dream
TTITLE6=Baby, I'm Ready
TTITLE7=Somebody Lied
TTITLE8=Crazy Over You
TTITLE9=Working Man Blues
EXTD=
EXTT0=
EXTT1=
EXTT2=
EXTT3=
EXTT4=
EXTT5=
EXTT6=
EXTT7=
EXTT8=
EXTT9=
PLAYORDER=
